<svg width="24" height="24" viewBox="0 0 24 24" fill="none" xmlns="http://www.w3.org/2000/svg">
<g clip-path="url(#clip0_6049_74905)">
<path d="M19.5093 12.8604V11.65C19.5093 9.62109 18.7182 7.67529 17.3099 6.24063C15.9016 4.80598 13.9916 4 12 4C10.0084 4 8.09836 4.80598 6.69009 6.24063C5.28181 7.67529 4.49065 9.62109 4.49065 11.65V12.8604C3.61553 13.253 2.89934 13.9399 2.46197 14.8061C2.02461 15.6724 1.89263 16.6654 2.08812 17.6189C2.28361 18.5724 2.79471 19.4286 3.53585 20.0441C4.27699 20.6596 5.20319 20.9971 6.15939 21C6.60197 21 7.02642 20.8209 7.33937 20.5021C7.65233 20.1833 7.82814 19.7509 7.82814 19.3V14.2C7.82814 13.7491 7.65233 13.3167 7.33937 12.9979C7.02642 12.6791 6.60197 12.5 6.15939 12.5V11.65C6.15939 10.072 6.77474 8.55856 7.87007 7.44271C8.96539 6.32687 10.451 5.7 12 5.7C13.549 5.7 15.0346 6.32687 16.1299 7.44271C17.2253 8.55856 17.8406 10.072 17.8406 11.65V12.5C17.398 12.5 16.9736 12.6791 16.6606 12.9979C16.3477 13.3167 16.1719 13.7491 16.1719 14.2V19.3H13.6687C13.4475 19.3 13.2352 19.3896 13.0788 19.549C12.9223 19.7084 12.8344 19.9246 12.8344 20.15C12.8344 20.3754 12.9223 20.5916 13.0788 20.751C13.2352 20.9104 13.4475 21 13.6687 21H17.8406C18.7968 20.9971 19.723 20.6596 20.4641 20.0441C21.2053 19.4286 21.7164 18.5724 21.9119 17.6189C22.1074 16.6654 21.9754 15.6724 21.538 14.8061C21.1007 13.9399 20.3845 13.253 19.5093 12.8604ZM6.15939 19.3C5.49553 19.3 4.85885 19.0313 4.38942 18.5531C3.92 18.0749 3.65628 17.4263 3.65628 16.75C3.65628 16.0737 3.92 15.4251 4.38942 14.9469C4.85885 14.4687 5.49553 14.2 6.15939 14.2V19.3ZM17.8406 19.3V14.2C18.5045 14.2 19.1412 14.4687 19.6106 14.9469C20.08 15.4251 20.3437 16.0737 20.3437 16.75C20.3437 17.4263 20.08 18.0749 19.6106 18.5531C19.1412 19.0313 18.5045 19.3 17.8406 19.3Z" fill="#1462B0"/>
</g>
<defs>
<clipPath id="clip0_6049_74905">
<rect width="20" height="17" fill="white" transform="translate(2 4)"/>
</clipPath>
</defs>
</svg>
