<svg width="24" height="24" viewBox="0 0 24 24" fill="none" xmlns="http://www.w3.org/2000/svg">
<g clip-path="url(#clip0_1_6)">
<path d="M17.5467 2.77516L7.38668 12.9352C6.99863 13.3211 6.691 13.7802 6.48158 14.2859C6.27217 14.7915 6.16514 15.3337 6.16668 15.881V17.0001C6.16668 17.2212 6.25448 17.4331 6.41076 17.5894C6.56704 17.7457 6.779 17.8335 7.00001 17.8335H8.11918C8.66648 17.835 9.20865 17.728 9.71431 17.5186C10.22 17.3092 10.6791 17.0015 11.065 16.6135L21.225 6.45349C21.712 5.9653 21.9855 5.30389 21.9855 4.61433C21.9855 3.92476 21.712 3.26335 21.225 2.77516C20.7297 2.30174 20.071 2.03754 19.3858 2.03754C18.7007 2.03754 18.0419 2.30174 17.5467 2.77516V2.77516ZM20.0467 5.27516L9.88668 15.4352C9.41678 15.9022 8.78168 16.1651 8.11918 16.1668H7.83335V15.881C7.83508 15.2185 8.09799 14.5834 8.56501 14.1135L18.725 3.95349C18.903 3.78346 19.1397 3.68857 19.3858 3.68857C19.632 3.68857 19.8687 3.78346 20.0467 3.95349C20.2216 4.12892 20.3199 4.36657 20.3199 4.61433C20.3199 4.86208 20.2216 5.09973 20.0467 5.27516V5.27516Z" fill="white"/>
<path d="M21.1667 9.4825C20.9456 9.4825 20.7337 9.57029 20.5774 9.72657C20.4211 9.88285 20.3333 10.0948 20.3333 10.3158V14.5H17C16.3369 14.5 15.7011 14.7634 15.2322 15.2322C14.7634 15.7011 14.5 16.3369 14.5 17V20.3333H6.16666C5.50362 20.3333 4.86774 20.0699 4.3989 19.6011C3.93006 19.1322 3.66667 18.4964 3.66667 17.8333V6.16666C3.66667 5.50362 3.93006 4.86774 4.3989 4.3989C4.86774 3.93006 5.50362 3.66667 6.16666 3.66667H13.7017C13.9227 3.66667 14.1346 3.57887 14.2909 3.42259C14.4472 3.26631 14.535 3.05435 14.535 2.83333C14.535 2.61232 14.4472 2.40036 14.2909 2.24408C14.1346 2.0878 13.9227 2 13.7017 2H6.16666C5.062 2.00132 4.00296 2.44073 3.22185 3.22185C2.44073 4.00296 2.00132 5.062 2 6.16666L2 17.8333C2.00132 18.938 2.44073 19.997 3.22185 20.7781C4.00296 21.5593 5.062 21.9987 6.16666 22H15.6192C16.1666 22.0016 16.7089 21.8945 17.2147 21.6851C17.7205 21.4757 18.1797 21.1681 18.5658 20.78L20.7792 18.565C21.1673 18.179 21.475 17.72 21.6846 17.2143C21.8941 16.7087 22.0013 16.1665 22 15.6192V10.3158C22 10.0948 21.9122 9.88285 21.7559 9.72657C21.5996 9.57029 21.3877 9.4825 21.1667 9.4825ZM17.3875 19.6017C17.0525 19.9358 16.6289 20.1672 16.1667 20.2683V17C16.1667 16.779 16.2545 16.567 16.4107 16.4107C16.567 16.2545 16.779 16.1667 17 16.1667H20.2708C20.1677 16.6279 19.9367 17.0508 19.6042 17.3867L17.3875 19.6017Z" fill="white"/>
</g>
<defs>
<clipPath id="clip0_1_6">
<rect width="20" height="20" fill="white" transform="translate(2 2)"/>
</clipPath>
</defs>
</svg>
