<svg width="21" height="20" viewBox="0 0 21 20" fill="none" xmlns="http://www.w3.org/2000/svg">
<path fill-rule="evenodd" clip-rule="evenodd" d="M5.84717 9.99995C5.84717 9.57039 5.49894 9.22217 5.06939 9.22217C4.63984 9.22217 4.29161 9.57039 4.29161 9.99995C4.29161 10.4295 4.63984 10.7777 5.06939 10.7777C5.49894 10.7777 5.84717 10.4295 5.84717 9.99995ZM7.29161 9.99995C7.29161 8.77265 6.29669 7.77772 5.06939 7.77772C3.84209 7.77772 2.84717 8.77265 2.84717 9.99995C2.84717 11.2272 3.84209 12.2222 5.06939 12.2222C6.29669 12.2222 7.29161 11.2272 7.29161 9.99995Z" fill="#0071BB"/>
<path fill-rule="evenodd" clip-rule="evenodd" d="M11.4028 9.99995C11.4028 9.57039 11.0546 9.22217 10.6251 9.22217C10.1955 9.22217 9.84728 9.57039 9.84728 9.99995C9.84728 10.4295 10.1955 10.7777 10.6251 10.7777C11.0546 10.7777 11.4028 10.4295 11.4028 9.99995ZM12.8473 9.99995C12.8473 8.77265 11.8524 7.77772 10.6251 7.77772C9.39775 7.77772 8.40283 8.77265 8.40283 9.99995C8.40283 11.2272 9.39775 12.2222 10.6251 12.2222C11.8524 12.2222 12.8473 11.2272 12.8473 9.99995Z" fill="#0071BB"/>
<path fill-rule="evenodd" clip-rule="evenodd" d="M16.9584 9.99995C16.9584 9.57039 16.6102 9.22217 16.1806 9.22217C15.751 9.22217 15.4028 9.57039 15.4028 9.99995C15.4028 10.4295 15.751 10.7777 16.1806 10.7777C16.6102 10.7777 16.9584 10.4295 16.9584 9.99995ZM18.4028 9.99995C18.4028 8.77265 17.4079 7.77772 16.1806 7.77772C14.9533 7.77772 13.9584 8.77265 13.9584 9.99995C13.9584 11.2272 14.9533 12.2222 16.1806 12.2222C17.4079 12.2222 18.4028 11.2272 18.4028 9.99995Z" fill="#0071BB"/>
</svg>
