<svg width="20" height="20" viewBox="0 0 20 20" fill="none" xmlns="http://www.w3.org/2000/svg">
<g clip-path="url(#clip0_14677_61284)">
<path d="M7.56953 4.44428H6.18064C5.22369 4.44428 4.44453 5.22345 4.44453 6.18039V7.56928C4.44453 8.52623 5.22369 9.30539 6.18064 9.30539H7.56953C8.52647 9.30539 9.30564 8.52623 9.30564 7.56928V6.18039C9.30564 5.22345 8.52647 4.44428 7.56953 4.44428ZM7.91675 7.56928C7.91675 7.76095 7.76119 7.9165 7.56953 7.9165H6.18064C5.98897 7.9165 5.83342 7.76095 5.83342 7.56928V6.18039C5.83342 5.98873 5.98897 5.83317 6.18064 5.83317H7.56953C7.76119 5.83317 7.91675 5.98873 7.91675 6.18039V7.56928ZM12.4306 9.30539H13.8195C14.7765 9.30539 15.5556 8.52623 15.5556 7.56928V6.18039C15.5556 5.22345 14.7765 4.44428 13.8195 4.44428H12.4306C11.4737 4.44428 10.6945 5.22345 10.6945 6.18039V7.56928C10.6945 8.52623 11.4737 9.30539 12.4306 9.30539ZM12.0834 6.18039C12.0834 5.98873 12.239 5.83317 12.4306 5.83317H13.8195C14.0112 5.83317 14.1667 5.98873 14.1667 6.18039V7.56928C14.1667 7.76095 14.0112 7.9165 13.8195 7.9165H12.4306C12.239 7.9165 12.0834 7.76095 12.0834 7.56928V6.18039ZM7.56953 10.6943H6.18064C5.22369 10.6943 4.44453 11.4734 4.44453 12.4304V13.8193C4.44453 14.7762 5.22369 15.5554 6.18064 15.5554H7.56953C8.52647 15.5554 9.30564 14.7762 9.30564 13.8193V12.4304C9.30564 11.4734 8.52647 10.6943 7.56953 10.6943ZM7.91675 13.8193C7.91675 14.0109 7.76119 14.1665 7.56953 14.1665H6.18064C5.98897 14.1665 5.83342 14.0109 5.83342 13.8193V12.4304C5.83342 12.2387 5.98897 12.0832 6.18064 12.0832H7.56953C7.76119 12.0832 7.91675 12.2387 7.91675 12.4304V13.8193ZM7.2223 17.6387C7.2223 18.0221 6.91119 18.3332 6.52786 18.3332H5.13897C3.22439 18.3332 1.66675 16.7755 1.66675 14.8609V13.4721C1.66675 13.0887 1.97786 12.7776 2.36119 12.7776C2.74453 12.7776 3.05564 13.0887 3.05564 13.4721V14.8609C3.05564 16.0096 3.99036 16.9443 5.13897 16.9443H6.52786C6.91119 16.9443 7.2223 17.2554 7.2223 17.6387ZM18.3334 13.4721V14.8609C18.3334 16.7755 16.7758 18.3332 14.8612 18.3332H13.4723C13.089 18.3332 12.7779 18.0221 12.7779 17.6387C12.7779 17.2554 13.089 16.9443 13.4723 16.9443H14.8612C16.0098 16.9443 16.9445 16.0096 16.9445 14.8609V13.4721C16.9445 13.0887 17.2556 12.7776 17.639 12.7776C18.0223 12.7776 18.3334 13.0887 18.3334 13.4721ZM18.3334 5.13873V6.52762C18.3334 6.91095 18.0223 7.22206 17.639 7.22206C17.2556 7.22206 16.9445 6.91095 16.9445 6.52762V5.13873C16.9445 3.99012 16.0098 3.05539 14.8612 3.05539H13.4723C13.089 3.05539 12.7779 2.74428 12.7779 2.36095C12.7779 1.97762 13.089 1.6665 13.4723 1.6665H14.8612C16.7758 1.6665 18.3334 3.22414 18.3334 5.13873ZM1.66675 6.52762V5.13873C1.66675 3.22414 3.22439 1.6665 5.13897 1.6665H6.52786C6.91119 1.6665 7.2223 1.97762 7.2223 2.36095C7.2223 2.74428 6.91119 3.05539 6.52786 3.05539H5.13897C3.99036 3.05539 3.05564 3.99012 3.05564 5.13873V6.52762C3.05564 6.91095 2.74453 7.22206 2.36119 7.22206C1.97786 7.22206 1.66675 6.91095 1.66675 6.52762ZM12.7779 14.5137C12.7779 15.0887 12.3112 15.5554 11.7362 15.5554C11.1612 15.5554 10.6945 15.0887 10.6945 14.5137C10.6945 13.9387 11.1612 13.4721 11.7362 13.4721C12.3112 13.4721 12.7779 13.9387 12.7779 14.5137ZM14.514 10.6943C15.089 10.6943 15.5556 11.1609 15.5556 11.7359C15.5556 12.3109 15.089 12.7776 14.514 12.7776C13.939 12.7776 13.4723 12.3109 13.4723 11.7359C13.4723 11.1609 13.939 10.6943 14.514 10.6943ZM10.6945 11.7359C10.6945 11.1609 11.1612 10.6943 11.7362 10.6943C12.3112 10.6943 12.7779 11.1609 12.7779 11.7359C12.7779 12.3109 12.3112 12.7776 11.7362 12.7776C11.1612 12.7776 10.6945 12.3109 10.6945 11.7359Z" fill="#1462B0"/>
</g>
<defs>
<clipPath id="clip0_14677_61284">
<rect width="16.6667" height="16.6667" fill="white" transform="translate(1.66675 1.6665)"/>
</clipPath>
</defs>
</svg>
