<svg width="21" height="20" viewBox="0 0 21 20" fill="none" xmlns="http://www.w3.org/2000/svg">
<g clip-path="url(#clip0_14675_9901)">
<path d="M16.0601 6.75921H14.9336C15.3001 6.43617 15.591 6.03644 15.7857 5.58839C15.9804 5.14034 16.0741 4.65493 16.0601 4.16661C16.0601 3.99471 15.9918 3.82985 15.8703 3.7083C15.7487 3.58675 15.5839 3.51846 15.412 3.51846C15.2401 3.51846 15.0752 3.58675 14.9537 3.7083C14.8321 3.82985 14.7638 3.99471 14.7638 4.16661C14.7638 5.86606 13.2271 6.45458 12.0585 6.65615C12.4898 5.89137 12.7495 5.04185 12.8194 4.16661C12.8194 3.65091 12.6145 3.15634 12.2499 2.79168C11.8852 2.42703 11.3906 2.22217 10.8749 2.22217C10.3592 2.22217 9.86467 2.42703 9.50002 2.79168C9.13536 3.15634 8.9305 3.65091 8.9305 4.16661C9.00044 5.04185 9.2601 5.89137 9.69143 6.65615C8.52282 6.45458 6.98606 5.86606 6.98606 4.16661C6.98606 3.99471 6.91777 3.82985 6.79622 3.7083C6.67467 3.58675 6.50981 3.51846 6.33791 3.51846C6.16601 3.51846 6.00115 3.58675 5.8796 3.7083C5.75805 3.82985 5.68976 3.99471 5.68976 4.16661C5.67583 4.65493 5.76953 5.14034 5.96421 5.58839C6.15889 6.03644 6.44978 6.43617 6.81624 6.75921H5.68976C5.00216 6.75921 4.34273 7.03235 3.85652 7.51856C3.37032 8.00476 3.09717 8.6642 3.09717 9.3518L3.09717 9.99995C3.09717 10.3437 3.23374 10.6735 3.47684 10.9166C3.71995 11.1597 4.04967 11.2962 4.39346 11.2962V14.537C4.39449 15.3962 4.73626 16.2199 5.34379 16.8274C5.95133 17.4349 6.77502 17.7767 7.63421 17.7777H14.1157C14.9749 17.7767 15.7986 17.4349 16.4061 16.8274C17.0136 16.2199 17.3554 15.3962 17.3564 14.537V11.2962C17.7002 11.2962 18.0299 11.1597 18.273 10.9166C18.5162 10.6735 18.6527 10.3437 18.6527 9.99995V9.3518C18.6527 8.6642 18.3796 8.00476 17.8934 7.51856C17.4072 7.03235 16.7477 6.75921 16.0601 6.75921ZM10.8749 3.51846C11.0468 3.51846 11.2117 3.58675 11.3333 3.7083C11.4548 3.82985 11.5231 3.99471 11.5231 4.16661C11.4449 4.85548 11.2241 5.52053 10.8749 6.11948C10.5258 5.52053 10.305 4.85548 10.2268 4.16661C10.2268 3.99471 10.2951 3.82985 10.4166 3.7083C10.5382 3.58675 10.703 3.51846 10.8749 3.51846ZM4.39346 9.3518C4.39346 9.008 4.53004 8.67828 4.77314 8.43518C5.01624 8.19208 5.34596 8.0555 5.68976 8.0555H10.2268V9.99995H4.39346V9.3518ZM5.68976 14.537V11.2962H10.2268V16.4814H7.63421C7.11851 16.4814 6.62393 16.2766 6.25928 15.9119C5.89462 15.5473 5.68976 15.0527 5.68976 14.537ZM16.0601 14.537C16.0601 15.0527 15.8553 15.5473 15.4906 15.9119C15.126 16.2766 14.6314 16.4814 14.1157 16.4814H11.5231V11.2962H16.0601V14.537ZM11.5231 9.99995V8.0555H16.0601C16.4039 8.0555 16.7336 8.19208 16.9768 8.43518C17.2199 8.67828 17.3564 9.008 17.3564 9.3518V9.99995H11.5231Z" fill="#0071BB"/>
</g>
<defs>
<clipPath id="clip0_14675_9901">
<rect width="15.5556" height="15.5556" fill="white" transform="translate(3.09717 2.22217)"/>
</clipPath>
</defs>
</svg>
