<svg width="24" height="24" viewBox="0 0 24 24" fill="none" xmlns="http://www.w3.org/2000/svg">
<rect width="24" height="24" fill="white"/>
<g clip-path="url(#clip0_6498_85794)">
<path d="M15.2727 12.8359C14.8917 13.3534 14.3976 13.7735 13.8295 14.0628C13.2615 14.352 12.6351 14.5027 12 14.5027C11.3649 14.5027 10.7385 14.352 10.1705 14.0628C9.60245 13.7735 9.10833 13.3534 8.72727 12.8359C8.40657 13.2763 8.00301 13.6471 7.54012 13.9269C7.07723 14.2067 6.56427 14.3899 6.03117 14.4657C5.49807 14.5414 4.95549 14.5084 4.43507 14.3684C3.91466 14.2283 3.42681 13.9842 3 13.6501V17.8361C3.0013 18.9408 3.43272 19.9999 4.19963 20.781C4.96655 21.5621 6.00633 22.0016 7.09091 22.0029H16.9091C17.9937 22.0016 19.0335 21.5621 19.8004 20.781C20.5673 19.9999 20.9987 18.9408 21 17.8361V13.6476C20.5733 13.9818 20.0856 14.2261 19.5653 14.3663C19.045 14.5066 18.5024 14.5399 17.9694 14.4643C17.4363 14.3888 16.9233 14.2059 16.4603 13.9263C15.9973 13.6467 15.5936 13.2761 15.2727 12.8359V12.8359Z" fill="#A7A8AB"/>
<path d="M19.9364 4.60931C19.778 3.86686 19.3739 3.20243 18.7917 2.72738C18.2096 2.25233 17.4848 1.99554 16.7389 2.00006H16.0909V4.50014C16.0909 4.72116 16.0047 4.93313 15.8513 5.08941C15.6978 5.2457 15.4897 5.3335 15.2727 5.3335C15.0557 5.3335 14.8476 5.2457 14.6942 5.08941C14.5407 4.93313 14.4545 4.72116 14.4545 4.50014V2.00006H9.54545V4.50014C9.54545 4.72116 9.45925 4.93313 9.30581 5.08941C9.15238 5.2457 8.94427 5.3335 8.72727 5.3335C8.51028 5.3335 8.30217 5.2457 8.14873 5.08941C7.99529 4.93313 7.90909 4.72116 7.90909 4.50014V2.00006H7.26109C6.51506 1.99558 5.7902 2.25249 5.20805 2.7277C4.62589 3.20292 4.22184 3.86754 4.06364 4.61014L3.018 9.41696L3 10.3503C3.00107 10.6786 3.06563 11.0035 3.18997 11.3064C3.31432 11.6093 3.49602 11.8843 3.72471 12.1157C4.18656 12.583 4.81174 12.8443 5.46273 12.8421C5.78506 12.841 6.10403 12.7752 6.40142 12.6486C6.69881 12.5219 6.96879 12.3368 7.19596 12.1039C7.42312 11.871 7.60302 11.5948 7.72538 11.291C7.84774 10.9873 7.91017 10.662 7.90909 10.3337C7.90909 10.1126 7.99529 9.90066 8.14873 9.74438C8.30217 9.58809 8.51028 9.50029 8.72727 9.50029C8.94427 9.50029 9.15238 9.58809 9.30581 9.74438C9.45925 9.90066 9.54545 10.1126 9.54545 10.3337C9.54545 10.9967 9.80406 11.6326 10.2644 12.1015C10.7247 12.5703 11.349 12.8337 12 12.8337C12.651 12.8337 13.2753 12.5703 13.7356 12.1015C14.1959 11.6326 14.4545 10.9967 14.4545 10.3337C14.4545 10.1126 14.5407 9.90066 14.6942 9.74438C14.8476 9.58809 15.0557 9.50029 15.2727 9.50029C15.4897 9.50029 15.6978 9.58809 15.8513 9.74438C16.0047 9.90066 16.0909 10.1126 16.0909 10.3337C16.0909 10.9967 16.3495 11.6326 16.8098 12.1015C17.2701 12.5703 17.8945 12.8337 18.5455 12.8337C19.1964 12.8337 19.8208 12.5703 20.2811 12.1015C20.7414 11.6326 21 10.9967 21 10.3337V9.58946L19.9364 4.60931Z" fill="#A7A8AB"/>
</g>
<defs>
<clipPath id="clip0_6498_85794">
<rect width="18" height="20" fill="white" transform="translate(3 2)"/>
</clipPath>
</defs>
</svg>
