<svg width="21" height="20" viewBox="0 0 21 20" fill="none" xmlns="http://www.w3.org/2000/svg">
<g clip-path="url(#clip0_14675_9905)">
<path fill-rule="evenodd" clip-rule="evenodd" d="M9.5843 9.3518C10.1816 8.77043 10.9093 8.32233 11.7193 8.0555H7.53244C7.36054 8.0555 7.19569 8.12379 7.07413 8.24534C6.95258 8.36689 6.8843 8.53175 6.8843 8.70365C6.8843 8.87555 6.95258 9.04041 7.07413 9.16196C7.19569 9.28351 7.36054 9.3518 7.53244 9.3518H9.5843ZM8.8807 16.4814H6.8843C6.3686 16.4814 5.87402 16.2766 5.50937 15.9119C5.14471 15.5473 4.93985 15.0527 4.93985 14.537V5.46291C4.93985 4.94721 5.14471 4.45263 5.50937 4.08798C5.87402 3.72333 6.3686 3.51846 6.8843 3.51846H13.3658C13.8815 3.51846 14.3761 3.72333 14.7407 4.08798C15.1054 4.45263 15.3102 4.94721 15.3102 5.46291V8.0937C15.7736 8.25744 16.2088 8.48092 16.6065 8.75487V5.46291C16.6055 4.60373 16.2637 3.78003 15.6562 3.1725C15.0487 2.56496 14.225 2.2232 13.3658 2.22217H6.8843C6.02511 2.2232 5.20142 2.56496 4.59388 3.1725C3.98635 3.78003 3.64458 4.60373 3.64355 5.46291V14.537C3.64458 15.3962 3.98635 16.2199 4.59388 16.8274C5.20142 17.4349 6.02511 17.7767 6.8843 17.7777H9.81069C9.91152 17.778 10.0122 17.7749 10.1125 17.7684C9.63629 17.4085 9.21983 16.9737 8.8807 16.4814ZM7.53244 6.75921H10.7732C10.9451 6.75921 11.1099 6.69092 11.2315 6.56937C11.353 6.44782 11.4213 6.28296 11.4213 6.11106C11.4213 5.93916 11.353 5.7743 11.2315 5.65275C11.1099 5.5312 10.9451 5.46291 10.7732 5.46291H7.53244C7.36054 5.46291 7.19569 5.5312 7.07413 5.65275C6.95258 5.7743 6.8843 5.93916 6.8843 6.11106C6.8843 6.28296 6.95258 6.44782 7.07413 6.56937C7.19569 6.69092 7.36054 6.75921 7.53244 6.75921Z" fill="#0071BB"/>
<path fill-rule="evenodd" clip-rule="evenodd" d="M13.4588 17.7778C15.9134 17.7778 17.9033 15.788 17.9033 13.3334C17.9033 10.8788 15.9134 8.88892 13.4588 8.88892C11.0042 8.88892 9.0144 10.8788 9.0144 13.3334C9.0144 15.788 11.0042 17.7778 13.4588 17.7778ZM11.8779 14.9431C12.0854 15.1575 12.3671 15.2779 12.6608 15.2778C12.9546 15.2779 13.2362 15.1575 13.4438 14.9431L16.0456 12.2599C16.3003 11.9971 16.3003 11.571 16.0456 11.3082C15.7908 11.0455 15.3778 11.0455 15.1231 11.3082L12.6608 13.8482L11.7946 13.0251C11.5398 12.7623 11.1268 12.7623 10.8721 13.0251C10.6174 13.2879 10.6174 13.7139 10.8721 13.9768L11.8779 14.9431Z" fill="#0071BB"/>
</g>
<defs>
<clipPath id="clip0_14675_9905">
<rect width="15.5556" height="15.5556" fill="white" transform="translate(2.34717 2.22217)"/>
</clipPath>
</defs>
</svg>
